<svg xmlns="http://www.w3.org/2000/svg" width="920" height="214" viewBox="0 0 920 214" role="img" aria-label="Vasysik profile observation record (light)">
  <title>Vasysik profile observation record (light)</title>
  <rect width="920" height="214" rx="10" fill="#f3f0e7"/>
  <rect x="0.5" y="0.5" width="919" height="213" rx="9.5" fill="none" stroke="#746c57"/>
  <style>
    .m{font-family:ui-monospace,SFMono-Regular,Menlo,Consolas,monospace}
    .label{font-size:11px;letter-spacing:1.35px}
    .small{font-size:12px}.body{font-size:13px}.value{font-size:15px;font-weight:600}
  </style><path d="M22 35H360 M560 35H898" stroke="#c6bfad"/><text x="22" y="25" fill="#716d60" class="m label">OBSERVATION RECORD / 004</text><text x="22" y="79" fill="#385e3b" class="m" font-size="31" font-weight="700">VASYSIK</text><text x="22" y="102" fill="#716d60" class="m small">github.com/Vasysik  ·  EL PSY KONGROO</text><text x="22" y="142" fill="#716d60" class="m label">REPOS</text><text x="22" y="166" fill="#302f28" class="m value">45</text><text x="130" y="142" fill="#716d60" class="m label">FOLLOWERS</text><text x="130" y="166" fill="#302f28" class="m value">5</text><text x="238" y="142" fill="#716d60" class="m label">STARS</text><text x="238" y="166" fill="#302f28" class="m value">31</text><text x="346" y="142" fill="#716d60" class="m label">FORKS</text><text x="346" y="166" fill="#302f28" class="m value">32</text><text x="22" y="196" fill="#716d60" class="m small">signal: yt-dlp-host  /  Python  /  ★ 30  /  fork 32</text><text x="558" y="25" fill="#716d60" class="m label">WORLD LINE / ACTIVITY HASH</text><rect x="558" y="56" width="43" height="74" rx="6" fill="#ece8dc" stroke="#746c57"/><line x1="565" y1="66" x2="594" y2="66" stroke="#c6bfad"/><line x1="565" y1="120" x2="594" y2="120" stroke="#c6bfad"/><text x="579.5" y="109" text-anchor="middle" fill="#a65022" class="m" font-size="42">1</text><circle cx="614" cy="105" r="3" fill="#a65022"/><rect x="629" y="56" width="43" height="74" rx="6" fill="#ece8dc" stroke="#746c57"/><line x1="636" y1="66" x2="665" y2="66" stroke="#c6bfad"/><line x1="636" y1="120" x2="665" y2="120" stroke="#c6bfad"/><text x="650.5" y="109" text-anchor="middle" fill="#a65022" class="m" font-size="42">0</text><rect x="678" y="56" width="43" height="74" rx="6" fill="#ece8dc" stroke="#746c57"/><line x1="685" y1="66" x2="714" y2="66" stroke="#c6bfad"/><line x1="685" y1="120" x2="714" y2="120" stroke="#c6bfad"/><text x="699.5" y="109" text-anchor="middle" fill="#a65022" class="m" font-size="42">4</text><rect x="727" y="56" width="43" height="74" rx="6" fill="#ece8dc" stroke="#746c57"/><line x1="734" y1="66" x2="763" y2="66" stroke="#c6bfad"/><line x1="734" y1="120" x2="763" y2="120" stroke="#c6bfad"/><text x="748.5" y="109" text-anchor="middle" fill="#a65022" class="m" font-size="42">8</text><rect x="776" y="56" width="43" height="74" rx="6" fill="#ece8dc" stroke="#746c57"/><line x1="783" y1="66" x2="812" y2="66" stroke="#c6bfad"/><line x1="783" y1="120" x2="812" y2="120" stroke="#c6bfad"/><text x="797.5" y="109" text-anchor="middle" fill="#a65022" class="m" font-size="42">5</text><rect x="825" y="56" width="43" height="74" rx="6" fill="#ece8dc" stroke="#746c57"/><line x1="832" y1="66" x2="861" y2="66" stroke="#c6bfad"/><line x1="832" y1="120" x2="861" y2="120" stroke="#c6bfad"/><text x="846.5" y="109" text-anchor="middle" fill="#a65022" class="m" font-size="42">9</text><rect x="874" y="56" width="43" height="74" rx="6" fill="#ece8dc" stroke="#746c57"/><line x1="881" y1="66" x2="910" y2="66" stroke="#c6bfad"/><line x1="881" y1="120" x2="910" y2="120" stroke="#c6bfad"/><text x="895.5" y="109" text-anchor="middle" fill="#a65022" class="m" font-size="42">6</text><text x="558" y="154" fill="#716d60" class="m small">derived from public activity · visual identifier</text><text x="558" y="178" fill="#302f28" class="m body">392 contributions / 2026</text><text x="558" y="197" fill="#716d60" class="m small">updated 2026-08-21 21:09 UTC</text></svg>