<svg xmlns="http://www.w3.org/2000/svg" width="920" height="214" viewBox="0 0 920 214" role="img" aria-label="Vasysik time leap signal (dark)">
  <title>Vasysik time leap signal (dark)</title>
  <rect width="920" height="214" rx="10" fill="#0b0d0b"/>
  <rect x="0.5" y="0.5" width="919" height="213" rx="9.5" fill="none" stroke="#4b4738"/>
  <style>
    .m{font-family:ui-monospace,SFMono-Regular,Menlo,Consolas,monospace}
    .label{font-size:11px;letter-spacing:1.35px}
    .small{font-size:12px}.body{font-size:13px}.value{font-size:15px;font-weight:600}
  </style><text x="22" y="27" fill="#777c69" class="m label">COMMIT FREQUENCY / TIME LEAP SIGNAL</text><text x="898" y="27" text-anchor="end" fill="#777c69" class="m small">smoothed daily contributions</text><line x1="22" y1="39" x2="898" y2="39" stroke="#24271f"/><line x1="30" y1="58.00" x2="890" y2="58.00" stroke="#171b17"/><line x1="30" y1="78.00" x2="890" y2="78.00" stroke="#171b17"/><line x1="30" y1="98.00" x2="890" y2="98.00" stroke="#171b17"/><line x1="30" y1="118.00" x2="890" y2="118.00" stroke="#171b17"/><line x1="30" y1="138.00" x2="890" y2="138.00" stroke="#171b17"/><line x1="30" y1="158.00" x2="890" y2="158.00" stroke="#171b17"/><text x="30.00" y="168" fill="#777c69" class="m small">Sep</text><text x="63.08" y="168" fill="#777c69" class="m small">Oct</text><text x="129.23" y="168" fill="#777c69" class="m small">Nov</text><text x="211.92" y="168" fill="#777c69" class="m small">Dec</text><text x="278.08" y="168" fill="#777c69" class="m small">Jan</text><text x="360.77" y="168" fill="#777c69" class="m small">Feb</text><text x="426.92" y="168" fill="#777c69" class="m small">Mar</text><text x="493.08" y="168" fill="#777c69" class="m small">Apr</text><text x="559.23" y="168" fill="#777c69" class="m small">May</text><text x="641.92" y="168" fill="#777c69" class="m small">Jun</text><text x="708.08" y="168" fill="#777c69" class="m small">Jul</text><text x="774.23" y="168" fill="#777c69" class="m small">Aug</text><text x="856.92" y="168" fill="#777c69" class="m small">Sep</text><path d="M 30.00 149.74 Q 31.18 149.74 32.36 150.81 Q 33.53 150.81 34.71 151.44 Q 35.89 151.44 37.07 151.44 Q 38.25 151.44 39.42 154.00 Q 40.60 154.00 41.78 154.00 Q 42.96 154.00 44.14 151.44 Q 45.32 151.44 46.49 143.78 Q 47.67 143.78 48.85 137.39 Q 50.03 137.39 51.21 105.44 Q 52.38 105.44 53.56 99.06 Q 54.74 99.06 55.92 101.61 Q 57.10 101.61 58.27 109.28 Q 59.45 109.28 60.63 111.83 Q 61.81 111.83 62.99 143.78 Q 64.16 143.78 65.34 150.17 Q 66.52 150.17 67.70 150.17 Q 68.88 150.17 70.05 150.17 Q 71.23 150.17 72.41 154.00 Q 73.59 154.00 74.77 154.00 Q 75.95 154.00 77.12 154.00 Q 78.30 154.00 79.48 154.00 Q 80.66 154.00 81.84 154.00 Q 83.01 154.00 84.19 154.00 Q 85.37 154.00 86.55 154.00 Q 87.73 154.00 88.90 154.00 Q 90.08 154.00 91.26 154.00 Q 92.44 154.00 93.62 154.00 Q 94.79 154.00 95.97 154.00 Q 97.15 154.00 98.33 154.00 Q 99.51 154.00 100.68 154.00 Q 101.86 154.00 103.04 154.00 Q 104.22 154.00 105.40 122.06 Q 106.58 122.06 107.75 116.94 Q 108.93 116.94 110.11 116.94 Q 111.29 116.94 112.47 116.94 Q 113.64 116.94 114.82 116.94 Q 116.00 116.94 117.18 148.89 Q 118.36 148.89 119.53 154.00 Q 120.71 154.00 121.89 151.44 Q 123.07 151.44 124.25 148.89 Q 125.42 148.89 126.60 148.89 Q 127.78 148.89 128.96 148.89 Q 130.14 148.89 131.32 148.89 Q 132.49 148.89 133.67 151.44 Q 134.85 151.44 136.03 154.00 Q 137.21 154.00 138.38 154.00 Q 139.56 154.00 140.74 154.00 Q 141.92 154.00 143.10 154.00 Q 144.27 154.00 145.45 154.00 Q 146.63 154.00 147.81 154.00 Q 148.99 154.00 150.16 154.00 Q 151.34 154.00 152.52 154.00 Q 153.70 154.00 154.88 154.00 Q 156.05 154.00 157.23 154.00 Q 158.41 154.00 159.59 154.00 Q 160.77 154.00 161.95 154.00 Q 163.12 154.00 164.30 154.00 Q 165.48 154.00 166.66 154.00 Q 167.84 154.00 169.01 154.00 Q 170.19 154.00 171.37 154.00 Q 172.55 154.00 173.73 154.00 Q 174.90 154.00 176.08 154.00 Q 177.26 154.00 178.44 154.00 Q 179.62 154.00 180.79 154.00 Q 181.97 154.00 183.15 154.00 Q 184.33 154.00 185.51 147.61 Q 186.68 147.61 187.86 147.61 Q 189.04 147.61 190.22 147.61 Q 191.40 147.61 192.58 147.61 Q 193.75 147.61 194.93 147.61 Q 196.11 147.61 197.29 154.00 Q 198.47 154.00 199.64 154.00 Q 200.82 154.00 202.00 154.00 Q 203.18 154.00 204.36 154.00 Q 205.53 154.00 206.71 154.00 Q 207.89 154.00 209.07 154.00 Q 210.25 154.00 211.42 154.00 Q 212.60 154.00 213.78 154.00 Q 214.96 154.00 216.14 154.00 Q 217.32 154.00 218.49 154.00 Q 219.67 154.00 220.85 143.78 Q 222.03 143.78 223.21 143.78 Q 224.38 143.78 225.56 143.78 Q 226.74 143.78 227.92 143.78 Q 229.10 143.78 230.27 141.22 Q 231.45 141.22 232.63 150.17 Q 233.81 150.17 234.99 133.56 Q 236.16 133.56 237.34 133.56 Q 238.52 133.56 239.70 133.56 Q 240.88 133.56 242.05 136.11 Q 243.23 136.11 244.41 137.39 Q 245.59 137.39 246.77 154.00 Q 247.95 154.00 249.12 154.00 Q 250.30 154.00 251.48 154.00 Q 252.66 154.00 253.84 154.00 Q 255.01 154.00 256.19 154.00 Q 257.37 154.00 258.55 154.00 Q 259.73 154.00 260.90 154.00 Q 262.08 154.00 263.26 154.00 Q 264.44 154.00 265.62 154.00 Q 266.79 154.00 267.97 154.00 Q 269.15 154.00 270.33 154.00 Q 271.51 154.00 272.68 154.00 Q 273.86 154.00 275.04 154.00 Q 276.22 154.00 277.40 154.00 Q 278.58 154.00 279.75 154.00 Q 280.93 154.00 282.11 154.00 Q 283.29 154.00 284.47 152.72 Q 285.64 152.72 286.82 152.72 Q 288.00 152.72 289.18 152.72 Q 290.36 152.72 291.53 152.72 Q 292.71 152.72 293.89 152.72 Q 295.07 152.72 296.25 154.00 Q 297.42 154.00 298.60 154.00 Q 299.78 154.00 300.96 154.00 Q 302.14 154.00 303.32 154.00 Q 304.49 154.00 305.67 154.00 Q 306.85 154.00 308.03 154.00 Q 309.21 154.00 310.38 154.00 Q 311.56 154.00 312.74 154.00 Q 313.92 154.00 315.10 154.00 Q 316.27 154.00 317.45 154.00 Q 318.63 154.00 319.81 154.00 Q 320.99 154.00 322.16 154.00 Q 323.34 154.00 324.52 154.00 Q 325.70 154.00 326.88 154.00 Q 328.05 154.00 329.23 154.00 Q 330.41 154.00 331.59 154.00 Q 332.77 154.00 333.95 154.00 Q 335.12 154.00 336.30 154.00 Q 337.48 154.00 338.66 154.00 Q 339.84 154.00 341.01 142.50 Q 342.19 142.50 343.37 128.44 Q 344.55 128.44 345.73 122.06 Q 346.90 122.06 348.08 120.78 Q 349.26 120.78 350.44 120.78 Q 351.62 120.78 352.79 132.28 Q 353.97 132.28 355.15 146.33 Q 356.33 146.33 357.51 152.72 Q 358.68 152.72 359.86 154.00 Q 361.04 154.00 362.22 154.00 Q 363.40 154.00 364.58 154.00 Q 365.75 154.00 366.93 154.00 Q 368.11 154.00 369.29 154.00 Q 370.47 154.00 371.64 154.00 Q 372.82 154.00 374.00 154.00 Q 375.18 154.00 376.36 154.00 Q 377.53 154.00 378.71 154.00 Q 379.89 154.00 381.07 154.00 Q 382.25 154.00 383.42 154.00 Q 384.60 154.00 385.78 154.00 Q 386.96 154.00 388.14 154.00 Q 389.32 154.00 390.49 154.00 Q 391.67 154.00 392.85 154.00 Q 394.03 154.00 395.21 152.72 Q 396.38 152.72 397.56 152.72 Q 398.74 152.72 399.92 152.72 Q 401.10 152.72 402.27 152.72 Q 403.45 152.72 404.63 152.72 Q 405.81 152.72 406.99 154.00 Q 408.16 154.00 409.34 154.00 Q 410.52 154.00 411.70 154.00 Q 412.88 154.00 414.05 154.00 Q 415.23 154.00 416.41 154.00 Q 417.59 154.00 418.77 154.00 Q 419.95 154.00 421.12 154.00 Q 422.30 154.00 423.48 154.00 Q 424.66 154.00 425.84 154.00 Q 427.01 154.00 428.19 154.00 Q 429.37 154.00 430.55 154.00 Q 431.73 154.00 432.90 147.61 Q 434.08 147.61 435.26 137.39 Q 436.44 137.39 437.62 87.56 Q 438.79 87.56 439.97 85.00 Q 441.15 85.00 442.33 85.00 Q 443.51 85.00 444.68 81.17 Q 445.86 81.17 447.04 91.39 Q 448.22 91.39 449.40 141.22 Q 450.58 141.22 451.75 143.78 Q 452.93 143.78 454.11 142.50 Q 455.29 142.50 456.47 151.44 Q 457.64 151.44 458.82 151.44 Q 460.00 151.44 461.18 151.44 Q 462.36 151.44 463.53 151.44 Q 464.71 151.44 465.89 152.72 Q 467.07 152.72 468.25 154.00 Q 469.42 154.00 470.60 154.00 Q 471.78 154.00 472.96 154.00 Q 474.14 154.00 475.32 154.00 Q 476.49 154.00 477.67 154.00 Q 478.85 154.00 480.03 154.00 Q 481.21 154.00 482.38 154.00 Q 483.56 154.00 484.74 154.00 Q 485.92 154.00 487.10 152.72 Q 488.27 152.72 489.45 151.44 Q 490.63 151.44 491.81 151.44 Q 492.99 151.44 494.16 151.44 Q 495.34 151.44 496.52 150.17 Q 497.70 150.17 498.88 151.44 Q 500.05 151.44 501.23 152.72 Q 502.41 152.72 503.59 152.72 Q 504.77 152.72 505.95 152.72 Q 507.12 152.72 508.30 154.00 Q 509.48 154.00 510.66 154.00 Q 511.84 154.00 513.01 154.00 Q 514.19 154.00 515.37 154.00 Q 516.55 154.00 517.73 154.00 Q 518.90 154.00 520.08 154.00 Q 521.26 154.00 522.44 154.00 Q 523.62 154.00 524.79 154.00 Q 525.97 154.00 527.15 154.00 Q 528.33 154.00 529.51 154.00 Q 530.68 154.00 531.86 154.00 Q 533.04 154.00 534.22 154.00 Q 535.40 154.00 536.58 154.00 Q 537.75 154.00 538.93 154.00 Q 540.11 154.00 541.29 154.00 Q 542.47 154.00 543.64 154.00 Q 544.82 154.00 546.00 154.00 Q 547.18 154.00 548.36 154.00 Q 549.53 154.00 550.71 154.00 Q 551.89 154.00 553.07 154.00 Q 554.25 154.00 555.42 154.00 Q 556.60 154.00 557.78 151.44 Q 558.96 151.44 560.14 151.44 Q 561.32 151.44 562.49 150.17 Q 563.67 150.17 564.85 138.67 Q 566.03 138.67 567.21 138.67 Q 568.38 138.67 569.56 128.44 Q 570.74 128.44 571.92 128.44 Q 573.10 128.44 574.27 129.72 Q 575.45 129.72 576.63 141.22 Q 577.81 141.22 578.99 141.22 Q 580.16 141.22 581.34 154.00 Q 582.52 154.00 583.70 154.00 Q 584.88 154.00 586.05 154.00 Q 587.23 154.00 588.41 154.00 Q 589.59 154.00 590.77 154.00 Q 591.95 154.00 593.12 154.00 Q 594.30 154.00 595.48 154.00 Q 596.66 154.00 597.84 154.00 Q 599.01 154.00 600.19 154.00 Q 601.37 154.00 602.55 154.00 Q 603.73 154.00 604.90 154.00 Q 606.08 154.00 607.26 154.00 Q 608.44 154.00 609.62 154.00 Q 610.79 154.00 611.97 154.00 Q 613.15 154.00 614.33 152.72 Q 615.51 152.72 616.68 152.72 Q 617.86 152.72 619.04 152.72 Q 620.22 152.72 621.40 152.72 Q 622.58 152.72 623.75 152.72 Q 624.93 152.72 626.11 154.00 Q 627.29 154.00 628.47 152.72 Q 629.64 152.72 630.82 152.72 Q 632.00 152.72 633.18 152.72 Q 634.36 152.72 635.53 152.72 Q 636.71 152.72 637.89 152.72 Q 639.07 152.72 640.25 154.00 Q 641.42 154.00 642.60 147.61 Q 643.78 147.61 644.96 147.61 Q 646.14 147.61 647.32 147.61 Q 648.49 147.61 649.67 147.61 Q 650.85 147.61 652.03 147.61 Q 653.21 147.61 654.38 154.00 Q 655.56 154.00 656.74 154.00 Q 657.92 154.00 659.10 154.00 Q 660.27 154.00 661.45 154.00 Q 662.63 154.00 663.81 154.00 Q 664.99 154.00 666.16 154.00 Q 667.34 154.00 668.52 154.00 Q 669.70 154.00 670.88 150.17 Q 672.05 150.17 673.23 150.17 Q 674.41 150.17 675.59 150.17 Q 676.77 150.17 677.95 150.17 Q 679.12 150.17 680.30 136.11 Q 681.48 136.11 682.66 136.11 Q 683.84 136.11 685.01 136.11 Q 686.19 136.11 687.37 129.72 Q 688.55 129.72 689.73 125.89 Q 690.90 125.89 692.08 118.22 Q 693.26 118.22 694.44 111.83 Q 695.62 111.83 696.79 106.72 Q 697.97 106.72 699.15 99.06 Q 700.33 99.06 701.51 90.11 Q 702.68 90.11 703.86 111.83 Q 705.04 111.83 706.22 120.78 Q 707.40 120.78 708.58 82.44 Q 709.75 82.44 710.93 76.06 Q 712.11 76.06 713.29 88.83 Q 714.47 88.83 715.64 85.00 Q 716.82 85.00 718.00 62.00 Q 719.18 62.00 720.36 69.67 Q 721.53 69.67 722.71 77.33 Q 723.89 77.33 725.07 65.83 Q 726.25 65.83 727.42 67.11 Q 728.60 67.11 729.78 87.56 Q 730.96 87.56 732.14 123.33 Q 733.32 123.33 734.49 134.83 Q 735.67 134.83 736.85 132.28 Q 738.03 132.28 739.21 127.17 Q 740.38 127.17 741.56 129.72 Q 742.74 129.72 743.92 128.44 Q 745.10 128.44 746.27 129.72 Q 747.45 129.72 748.63 143.78 Q 749.81 143.78 750.99 132.28 Q 752.16 132.28 753.34 128.44 Q 754.52 128.44 755.70 127.17 Q 756.88 127.17 758.05 114.39 Q 759.23 114.39 760.41 108.00 Q 761.59 108.00 762.77 127.17 Q 763.95 127.17 765.12 131.00 Q 766.30 131.00 767.48 124.61 Q 768.66 124.61 769.84 137.39 Q 771.01 137.39 772.19 143.78 Q 773.37 143.78 774.55 143.78 Q 775.73 143.78 776.90 145.06 Q 778.08 145.06 779.26 154.00 Q 780.44 154.00 781.62 154.00 Q 782.79 154.00 783.97 154.00 Q 785.15 154.00 786.33 154.00 Q 787.51 154.00 788.68 152.72 Q 789.86 152.72 791.04 152.72 Q 792.22 152.72 793.40 152.72 Q 794.58 152.72 795.75 152.72 Q 796.93 152.72 798.11 152.72 Q 799.29 152.72 800.47 154.00 Q 801.64 154.00 802.82 154.00 Q 804.00 154.00 805.18 154.00 Q 806.36 154.00 807.53 154.00 Q 808.71 154.00 809.89 154.00 Q 811.07 154.00 812.25 154.00 Q 813.42 154.00 814.60 150.17 Q 815.78 150.17 816.96 143.78 Q 818.14 143.78 819.32 141.22 Q 820.49 141.22 821.67 141.22 Q 822.85 141.22 824.03 139.94 Q 825.21 139.94 826.38 141.22 Q 827.56 141.22 828.74 119.50 Q 829.92 119.50 831.10 116.94 Q 832.27 116.94 833.45 101.61 Q 834.63 101.61 835.81 82.44 Q 836.99 82.44 838.16 65.83 Q 839.34 65.83 840.52 93.94 Q 841.70 93.94 842.88 99.06 Q 844.05 99.06 845.23 114.39 Q 846.41 114.39 847.59 134.83 Q 848.77 134.83 849.95 154.00 Q 851.12 154.00 852.30 154.00 Q 853.48 154.00 854.66 154.00 Q 855.84 154.00 857.01 154.00 Q 858.19 154.00 859.37 150.17 Q 860.55 150.17 861.73 134.83 Q 862.90 134.83 864.08 134.83 Q 865.26 134.83 866.44 134.83 Q 867.62 134.83 868.79 134.83 Q 869.97 134.83 871.15 138.67 Q 872.33 138.67 873.51 154.00 Q 874.68 154.00 875.86 154.00 Q 877.04 154.00 878.22 154.00 Q 879.40 154.00 880.58 154.00 Q 881.75 154.00 882.93 154.00 Q 884.11 154.00 885.29 154.00 Q 886.47 154.00 887.64 154.00 Q 888.82 154.00 890.00 154.00" fill="none" stroke="#55774f" stroke-width="5" opacity="0.24"/><path d="M 30.00 149.74 Q 31.18 149.74 32.36 150.81 Q 33.53 150.81 34.71 151.44 Q 35.89 151.44 37.07 151.44 Q 38.25 151.44 39.42 154.00 Q 40.60 154.00 41.78 154.00 Q 42.96 154.00 44.14 151.44 Q 45.32 151.44 46.49 143.78 Q 47.67 143.78 48.85 137.39 Q 50.03 137.39 51.21 105.44 Q 52.38 105.44 53.56 99.06 Q 54.74 99.06 55.92 101.61 Q 57.10 101.61 58.27 109.28 Q 59.45 109.28 60.63 111.83 Q 61.81 111.83 62.99 143.78 Q 64.16 143.78 65.34 150.17 Q 66.52 150.17 67.70 150.17 Q 68.88 150.17 70.05 150.17 Q 71.23 150.17 72.41 154.00 Q 73.59 154.00 74.77 154.00 Q 75.95 154.00 77.12 154.00 Q 78.30 154.00 79.48 154.00 Q 80.66 154.00 81.84 154.00 Q 83.01 154.00 84.19 154.00 Q 85.37 154.00 86.55 154.00 Q 87.73 154.00 88.90 154.00 Q 90.08 154.00 91.26 154.00 Q 92.44 154.00 93.62 154.00 Q 94.79 154.00 95.97 154.00 Q 97.15 154.00 98.33 154.00 Q 99.51 154.00 100.68 154.00 Q 101.86 154.00 103.04 154.00 Q 104.22 154.00 105.40 122.06 Q 106.58 122.06 107.75 116.94 Q 108.93 116.94 110.11 116.94 Q 111.29 116.94 112.47 116.94 Q 113.64 116.94 114.82 116.94 Q 116.00 116.94 117.18 148.89 Q 118.36 148.89 119.53 154.00 Q 120.71 154.00 121.89 151.44 Q 123.07 151.44 124.25 148.89 Q 125.42 148.89 126.60 148.89 Q 127.78 148.89 128.96 148.89 Q 130.14 148.89 131.32 148.89 Q 132.49 148.89 133.67 151.44 Q 134.85 151.44 136.03 154.00 Q 137.21 154.00 138.38 154.00 Q 139.56 154.00 140.74 154.00 Q 141.92 154.00 143.10 154.00 Q 144.27 154.00 145.45 154.00 Q 146.63 154.00 147.81 154.00 Q 148.99 154.00 150.16 154.00 Q 151.34 154.00 152.52 154.00 Q 153.70 154.00 154.88 154.00 Q 156.05 154.00 157.23 154.00 Q 158.41 154.00 159.59 154.00 Q 160.77 154.00 161.95 154.00 Q 163.12 154.00 164.30 154.00 Q 165.48 154.00 166.66 154.00 Q 167.84 154.00 169.01 154.00 Q 170.19 154.00 171.37 154.00 Q 172.55 154.00 173.73 154.00 Q 174.90 154.00 176.08 154.00 Q 177.26 154.00 178.44 154.00 Q 179.62 154.00 180.79 154.00 Q 181.97 154.00 183.15 154.00 Q 184.33 154.00 185.51 147.61 Q 186.68 147.61 187.86 147.61 Q 189.04 147.61 190.22 147.61 Q 191.40 147.61 192.58 147.61 Q 193.75 147.61 194.93 147.61 Q 196.11 147.61 197.29 154.00 Q 198.47 154.00 199.64 154.00 Q 200.82 154.00 202.00 154.00 Q 203.18 154.00 204.36 154.00 Q 205.53 154.00 206.71 154.00 Q 207.89 154.00 209.07 154.00 Q 210.25 154.00 211.42 154.00 Q 212.60 154.00 213.78 154.00 Q 214.96 154.00 216.14 154.00 Q 217.32 154.00 218.49 154.00 Q 219.67 154.00 220.85 143.78 Q 222.03 143.78 223.21 143.78 Q 224.38 143.78 225.56 143.78 Q 226.74 143.78 227.92 143.78 Q 229.10 143.78 230.27 141.22 Q 231.45 141.22 232.63 150.17 Q 233.81 150.17 234.99 133.56 Q 236.16 133.56 237.34 133.56 Q 238.52 133.56 239.70 133.56 Q 240.88 133.56 242.05 136.11 Q 243.23 136.11 244.41 137.39 Q 245.59 137.39 246.77 154.00 Q 247.95 154.00 249.12 154.00 Q 250.30 154.00 251.48 154.00 Q 252.66 154.00 253.84 154.00 Q 255.01 154.00 256.19 154.00 Q 257.37 154.00 258.55 154.00 Q 259.73 154.00 260.90 154.00 Q 262.08 154.00 263.26 154.00 Q 264.44 154.00 265.62 154.00 Q 266.79 154.00 267.97 154.00 Q 269.15 154.00 270.33 154.00 Q 271.51 154.00 272.68 154.00 Q 273.86 154.00 275.04 154.00 Q 276.22 154.00 277.40 154.00 Q 278.58 154.00 279.75 154.00 Q 280.93 154.00 282.11 154.00 Q 283.29 154.00 284.47 152.72 Q 285.64 152.72 286.82 152.72 Q 288.00 152.72 289.18 152.72 Q 290.36 152.72 291.53 152.72 Q 292.71 152.72 293.89 152.72 Q 295.07 152.72 296.25 154.00 Q 297.42 154.00 298.60 154.00 Q 299.78 154.00 300.96 154.00 Q 302.14 154.00 303.32 154.00 Q 304.49 154.00 305.67 154.00 Q 306.85 154.00 308.03 154.00 Q 309.21 154.00 310.38 154.00 Q 311.56 154.00 312.74 154.00 Q 313.92 154.00 315.10 154.00 Q 316.27 154.00 317.45 154.00 Q 318.63 154.00 319.81 154.00 Q 320.99 154.00 322.16 154.00 Q 323.34 154.00 324.52 154.00 Q 325.70 154.00 326.88 154.00 Q 328.05 154.00 329.23 154.00 Q 330.41 154.00 331.59 154.00 Q 332.77 154.00 333.95 154.00 Q 335.12 154.00 336.30 154.00 Q 337.48 154.00 338.66 154.00 Q 339.84 154.00 341.01 142.50 Q 342.19 142.50 343.37 128.44 Q 344.55 128.44 345.73 122.06 Q 346.90 122.06 348.08 120.78 Q 349.26 120.78 350.44 120.78 Q 351.62 120.78 352.79 132.28 Q 353.97 132.28 355.15 146.33 Q 356.33 146.33 357.51 152.72 Q 358.68 152.72 359.86 154.00 Q 361.04 154.00 362.22 154.00 Q 363.40 154.00 364.58 154.00 Q 365.75 154.00 366.93 154.00 Q 368.11 154.00 369.29 154.00 Q 370.47 154.00 371.64 154.00 Q 372.82 154.00 374.00 154.00 Q 375.18 154.00 376.36 154.00 Q 377.53 154.00 378.71 154.00 Q 379.89 154.00 381.07 154.00 Q 382.25 154.00 383.42 154.00 Q 384.60 154.00 385.78 154.00 Q 386.96 154.00 388.14 154.00 Q 389.32 154.00 390.49 154.00 Q 391.67 154.00 392.85 154.00 Q 394.03 154.00 395.21 152.72 Q 396.38 152.72 397.56 152.72 Q 398.74 152.72 399.92 152.72 Q 401.10 152.72 402.27 152.72 Q 403.45 152.72 404.63 152.72 Q 405.81 152.72 406.99 154.00 Q 408.16 154.00 409.34 154.00 Q 410.52 154.00 411.70 154.00 Q 412.88 154.00 414.05 154.00 Q 415.23 154.00 416.41 154.00 Q 417.59 154.00 418.77 154.00 Q 419.95 154.00 421.12 154.00 Q 422.30 154.00 423.48 154.00 Q 424.66 154.00 425.84 154.00 Q 427.01 154.00 428.19 154.00 Q 429.37 154.00 430.55 154.00 Q 431.73 154.00 432.90 147.61 Q 434.08 147.61 435.26 137.39 Q 436.44 137.39 437.62 87.56 Q 438.79 87.56 439.97 85.00 Q 441.15 85.00 442.33 85.00 Q 443.51 85.00 444.68 81.17 Q 445.86 81.17 447.04 91.39 Q 448.22 91.39 449.40 141.22 Q 450.58 141.22 451.75 143.78 Q 452.93 143.78 454.11 142.50 Q 455.29 142.50 456.47 151.44 Q 457.64 151.44 458.82 151.44 Q 460.00 151.44 461.18 151.44 Q 462.36 151.44 463.53 151.44 Q 464.71 151.44 465.89 152.72 Q 467.07 152.72 468.25 154.00 Q 469.42 154.00 470.60 154.00 Q 471.78 154.00 472.96 154.00 Q 474.14 154.00 475.32 154.00 Q 476.49 154.00 477.67 154.00 Q 478.85 154.00 480.03 154.00 Q 481.21 154.00 482.38 154.00 Q 483.56 154.00 484.74 154.00 Q 485.92 154.00 487.10 152.72 Q 488.27 152.72 489.45 151.44 Q 490.63 151.44 491.81 151.44 Q 492.99 151.44 494.16 151.44 Q 495.34 151.44 496.52 150.17 Q 497.70 150.17 498.88 151.44 Q 500.05 151.44 501.23 152.72 Q 502.41 152.72 503.59 152.72 Q 504.77 152.72 505.95 152.72 Q 507.12 152.72 508.30 154.00 Q 509.48 154.00 510.66 154.00 Q 511.84 154.00 513.01 154.00 Q 514.19 154.00 515.37 154.00 Q 516.55 154.00 517.73 154.00 Q 518.90 154.00 520.08 154.00 Q 521.26 154.00 522.44 154.00 Q 523.62 154.00 524.79 154.00 Q 525.97 154.00 527.15 154.00 Q 528.33 154.00 529.51 154.00 Q 530.68 154.00 531.86 154.00 Q 533.04 154.00 534.22 154.00 Q 535.40 154.00 536.58 154.00 Q 537.75 154.00 538.93 154.00 Q 540.11 154.00 541.29 154.00 Q 542.47 154.00 543.64 154.00 Q 544.82 154.00 546.00 154.00 Q 547.18 154.00 548.36 154.00 Q 549.53 154.00 550.71 154.00 Q 551.89 154.00 553.07 154.00 Q 554.25 154.00 555.42 154.00 Q 556.60 154.00 557.78 151.44 Q 558.96 151.44 560.14 151.44 Q 561.32 151.44 562.49 150.17 Q 563.67 150.17 564.85 138.67 Q 566.03 138.67 567.21 138.67 Q 568.38 138.67 569.56 128.44 Q 570.74 128.44 571.92 128.44 Q 573.10 128.44 574.27 129.72 Q 575.45 129.72 576.63 141.22 Q 577.81 141.22 578.99 141.22 Q 580.16 141.22 581.34 154.00 Q 582.52 154.00 583.70 154.00 Q 584.88 154.00 586.05 154.00 Q 587.23 154.00 588.41 154.00 Q 589.59 154.00 590.77 154.00 Q 591.95 154.00 593.12 154.00 Q 594.30 154.00 595.48 154.00 Q 596.66 154.00 597.84 154.00 Q 599.01 154.00 600.19 154.00 Q 601.37 154.00 602.55 154.00 Q 603.73 154.00 604.90 154.00 Q 606.08 154.00 607.26 154.00 Q 608.44 154.00 609.62 154.00 Q 610.79 154.00 611.97 154.00 Q 613.15 154.00 614.33 152.72 Q 615.51 152.72 616.68 152.72 Q 617.86 152.72 619.04 152.72 Q 620.22 152.72 621.40 152.72 Q 622.58 152.72 623.75 152.72 Q 624.93 152.72 626.11 154.00 Q 627.29 154.00 628.47 152.72 Q 629.64 152.72 630.82 152.72 Q 632.00 152.72 633.18 152.72 Q 634.36 152.72 635.53 152.72 Q 636.71 152.72 637.89 152.72 Q 639.07 152.72 640.25 154.00 Q 641.42 154.00 642.60 147.61 Q 643.78 147.61 644.96 147.61 Q 646.14 147.61 647.32 147.61 Q 648.49 147.61 649.67 147.61 Q 650.85 147.61 652.03 147.61 Q 653.21 147.61 654.38 154.00 Q 655.56 154.00 656.74 154.00 Q 657.92 154.00 659.10 154.00 Q 660.27 154.00 661.45 154.00 Q 662.63 154.00 663.81 154.00 Q 664.99 154.00 666.16 154.00 Q 667.34 154.00 668.52 154.00 Q 669.70 154.00 670.88 150.17 Q 672.05 150.17 673.23 150.17 Q 674.41 150.17 675.59 150.17 Q 676.77 150.17 677.95 150.17 Q 679.12 150.17 680.30 136.11 Q 681.48 136.11 682.66 136.11 Q 683.84 136.11 685.01 136.11 Q 686.19 136.11 687.37 129.72 Q 688.55 129.72 689.73 125.89 Q 690.90 125.89 692.08 118.22 Q 693.26 118.22 694.44 111.83 Q 695.62 111.83 696.79 106.72 Q 697.97 106.72 699.15 99.06 Q 700.33 99.06 701.51 90.11 Q 702.68 90.11 703.86 111.83 Q 705.04 111.83 706.22 120.78 Q 707.40 120.78 708.58 82.44 Q 709.75 82.44 710.93 76.06 Q 712.11 76.06 713.29 88.83 Q 714.47 88.83 715.64 85.00 Q 716.82 85.00 718.00 62.00 Q 719.18 62.00 720.36 69.67 Q 721.53 69.67 722.71 77.33 Q 723.89 77.33 725.07 65.83 Q 726.25 65.83 727.42 67.11 Q 728.60 67.11 729.78 87.56 Q 730.96 87.56 732.14 123.33 Q 733.32 123.33 734.49 134.83 Q 735.67 134.83 736.85 132.28 Q 738.03 132.28 739.21 127.17 Q 740.38 127.17 741.56 129.72 Q 742.74 129.72 743.92 128.44 Q 745.10 128.44 746.27 129.72 Q 747.45 129.72 748.63 143.78 Q 749.81 143.78 750.99 132.28 Q 752.16 132.28 753.34 128.44 Q 754.52 128.44 755.70 127.17 Q 756.88 127.17 758.05 114.39 Q 759.23 114.39 760.41 108.00 Q 761.59 108.00 762.77 127.17 Q 763.95 127.17 765.12 131.00 Q 766.30 131.00 767.48 124.61 Q 768.66 124.61 769.84 137.39 Q 771.01 137.39 772.19 143.78 Q 773.37 143.78 774.55 143.78 Q 775.73 143.78 776.90 145.06 Q 778.08 145.06 779.26 154.00 Q 780.44 154.00 781.62 154.00 Q 782.79 154.00 783.97 154.00 Q 785.15 154.00 786.33 154.00 Q 787.51 154.00 788.68 152.72 Q 789.86 152.72 791.04 152.72 Q 792.22 152.72 793.40 152.72 Q 794.58 152.72 795.75 152.72 Q 796.93 152.72 798.11 152.72 Q 799.29 152.72 800.47 154.00 Q 801.64 154.00 802.82 154.00 Q 804.00 154.00 805.18 154.00 Q 806.36 154.00 807.53 154.00 Q 808.71 154.00 809.89 154.00 Q 811.07 154.00 812.25 154.00 Q 813.42 154.00 814.60 150.17 Q 815.78 150.17 816.96 143.78 Q 818.14 143.78 819.32 141.22 Q 820.49 141.22 821.67 141.22 Q 822.85 141.22 824.03 139.94 Q 825.21 139.94 826.38 141.22 Q 827.56 141.22 828.74 119.50 Q 829.92 119.50 831.10 116.94 Q 832.27 116.94 833.45 101.61 Q 834.63 101.61 835.81 82.44 Q 836.99 82.44 838.16 65.83 Q 839.34 65.83 840.52 93.94 Q 841.70 93.94 842.88 99.06 Q 844.05 99.06 845.23 114.39 Q 846.41 114.39 847.59 134.83 Q 848.77 134.83 849.95 154.00 Q 851.12 154.00 852.30 154.00 Q 853.48 154.00 854.66 154.00 Q 855.84 154.00 857.01 154.00 Q 858.19 154.00 859.37 150.17 Q 860.55 150.17 861.73 134.83 Q 862.90 134.83 864.08 134.83 Q 865.26 134.83 866.44 134.83 Q 867.62 134.83 868.79 134.83 Q 869.97 134.83 871.15 138.67 Q 872.33 138.67 873.51 154.00 Q 874.68 154.00 875.86 154.00 Q 877.04 154.00 878.22 154.00 Q 879.40 154.00 880.58 154.00 Q 881.75 154.00 882.93 154.00 Q 884.11 154.00 885.29 154.00 Q 886.47 154.00 887.64 154.00 Q 888.82 154.00 890.00 154.00" fill="none" stroke="#9bc67f" stroke-width="1.8"/><line x1="22" y1="198" x2="898" y2="198" stroke="#24271f"/><text x="22" y="188" fill="#777c69" class="m small">range: Jan → now</text><text x="898" y="188" text-anchor="end" fill="#c4c8ad" class="m small">peak daily count is derived from your contribution calendar</text></svg>