<svg xmlns="http://www.w3.org/2000/svg" width="920" height="214" viewBox="0 0 920 214" role="img" aria-label="Vasysik time leap signal (light)">
  <title>Vasysik time leap signal (light)</title>
  <rect width="920" height="214" rx="10" fill="#f3f0e7"/>
  <rect x="0.5" y="0.5" width="919" height="213" rx="9.5" fill="none" stroke="#746c57"/>
  <style>
    .m{font-family:ui-monospace,SFMono-Regular,Menlo,Consolas,monospace}
    .label{font-size:11px;letter-spacing:1.35px}
    .small{font-size:12px}.body{font-size:13px}.value{font-size:15px;font-weight:600}
  </style><text x="22" y="27" fill="#716d60" class="m label">COMMIT FREQUENCY / TIME LEAP SIGNAL</text><text x="898" y="27" text-anchor="end" fill="#716d60" class="m small">smoothed daily contributions</text><line x1="22" y1="39" x2="898" y2="39" stroke="#c6bfad"/><line x1="30" y1="58.00" x2="890" y2="58.00" stroke="#e0dbc8"/><line x1="30" y1="78.00" x2="890" y2="78.00" stroke="#e0dbc8"/><line x1="30" y1="98.00" x2="890" y2="98.00" stroke="#e0dbc8"/><line x1="30" y1="118.00" x2="890" y2="118.00" stroke="#e0dbc8"/><line x1="30" y1="138.00" x2="890" y2="138.00" stroke="#e0dbc8"/><line x1="30" y1="158.00" x2="890" y2="158.00" stroke="#e0dbc8"/><text x="30.00" y="168" fill="#716d60" class="m small">Aug</text><text x="46.54" y="168" fill="#716d60" class="m small">Sep</text><text x="112.69" y="168" fill="#716d60" class="m small">Oct</text><text x="178.85" y="168" fill="#716d60" class="m small">Nov</text><text x="261.54" y="168" fill="#716d60" class="m small">Dec</text><text x="327.69" y="168" fill="#716d60" class="m small">Jan</text><text x="410.38" y="168" fill="#716d60" class="m small">Feb</text><text x="476.54" y="168" fill="#716d60" class="m small">Mar</text><text x="542.69" y="168" fill="#716d60" class="m small">Apr</text><text x="608.85" y="168" fill="#716d60" class="m small">May</text><text x="691.54" y="168" fill="#716d60" class="m small">Jun</text><text x="757.69" y="168" fill="#716d60" class="m small">Jul</text><text x="823.85" y="168" fill="#716d60" class="m small">Aug</text><path d="M 30.00 154.00 Q 31.18 154.00 32.36 154.00 Q 33.53 154.00 34.71 154.00 Q 35.89 154.00 37.07 154.00 Q 38.25 154.00 39.42 152.72 Q 40.60 152.72 41.78 152.72 Q 42.96 152.72 44.14 152.72 Q 45.32 152.72 46.49 152.72 Q 47.67 152.72 48.85 150.17 Q 50.03 150.17 51.21 132.28 Q 52.38 132.28 53.56 127.17 Q 54.74 127.17 55.92 127.17 Q 57.10 127.17 58.27 127.17 Q 59.45 127.17 60.63 120.78 Q 61.81 120.78 62.99 139.94 Q 64.16 139.94 65.34 145.06 Q 66.52 145.06 67.70 145.06 Q 68.88 145.06 70.05 142.50 Q 71.23 142.50 72.41 151.44 Q 73.59 151.44 74.77 151.44 Q 75.95 151.44 77.12 151.44 Q 78.30 151.44 79.48 151.44 Q 80.66 151.44 81.84 154.00 Q 83.01 154.00 84.19 154.00 Q 85.37 154.00 86.55 151.44 Q 87.73 151.44 88.90 143.78 Q 90.08 143.78 91.26 137.39 Q 92.44 137.39 93.62 105.44 Q 94.79 105.44 95.97 99.06 Q 97.15 99.06 98.33 101.61 Q 99.51 101.61 100.68 109.28 Q 101.86 109.28 103.04 111.83 Q 104.22 111.83 105.40 143.78 Q 106.58 143.78 107.75 150.17 Q 108.93 150.17 110.11 150.17 Q 111.29 150.17 112.47 150.17 Q 113.64 150.17 114.82 154.00 Q 116.00 154.00 117.18 154.00 Q 118.36 154.00 119.53 154.00 Q 120.71 154.00 121.89 154.00 Q 123.07 154.00 124.25 154.00 Q 125.42 154.00 126.60 154.00 Q 127.78 154.00 128.96 154.00 Q 130.14 154.00 131.32 154.00 Q 132.49 154.00 133.67 154.00 Q 134.85 154.00 136.03 154.00 Q 137.21 154.00 138.38 154.00 Q 139.56 154.00 140.74 154.00 Q 141.92 154.00 143.10 154.00 Q 144.27 154.00 145.45 154.00 Q 146.63 154.00 147.81 122.06 Q 148.99 122.06 150.16 116.94 Q 151.34 116.94 152.52 116.94 Q 153.70 116.94 154.88 116.94 Q 156.05 116.94 157.23 116.94 Q 158.41 116.94 159.59 148.89 Q 160.77 148.89 161.95 154.00 Q 163.12 154.00 164.30 151.44 Q 165.48 151.44 166.66 148.89 Q 167.84 148.89 169.01 148.89 Q 170.19 148.89 171.37 148.89 Q 172.55 148.89 173.73 148.89 Q 174.90 148.89 176.08 151.44 Q 177.26 151.44 178.44 154.00 Q 179.62 154.00 180.79 154.00 Q 181.97 154.00 183.15 154.00 Q 184.33 154.00 185.51 154.00 Q 186.68 154.00 187.86 154.00 Q 189.04 154.00 190.22 154.00 Q 191.40 154.00 192.58 154.00 Q 193.75 154.00 194.93 154.00 Q 196.11 154.00 197.29 154.00 Q 198.47 154.00 199.64 154.00 Q 200.82 154.00 202.00 154.00 Q 203.18 154.00 204.36 154.00 Q 205.53 154.00 206.71 154.00 Q 207.89 154.00 209.07 154.00 Q 210.25 154.00 211.42 154.00 Q 212.60 154.00 213.78 154.00 Q 214.96 154.00 216.14 154.00 Q 217.32 154.00 218.49 154.00 Q 219.67 154.00 220.85 154.00 Q 222.03 154.00 223.21 154.00 Q 224.38 154.00 225.56 154.00 Q 226.74 154.00 227.92 147.61 Q 229.10 147.61 230.27 147.61 Q 231.45 147.61 232.63 147.61 Q 233.81 147.61 234.99 147.61 Q 236.16 147.61 237.34 147.61 Q 238.52 147.61 239.70 154.00 Q 240.88 154.00 242.05 154.00 Q 243.23 154.00 244.41 154.00 Q 245.59 154.00 246.77 154.00 Q 247.95 154.00 249.12 154.00 Q 250.30 154.00 251.48 154.00 Q 252.66 154.00 253.84 154.00 Q 255.01 154.00 256.19 154.00 Q 257.37 154.00 258.55 154.00 Q 259.73 154.00 260.90 154.00 Q 262.08 154.00 263.26 143.78 Q 264.44 143.78 265.62 143.78 Q 266.79 143.78 267.97 143.78 Q 269.15 143.78 270.33 143.78 Q 271.51 143.78 272.68 141.22 Q 273.86 141.22 275.04 150.17 Q 276.22 150.17 277.40 133.56 Q 278.58 133.56 279.75 133.56 Q 280.93 133.56 282.11 133.56 Q 283.29 133.56 284.47 136.11 Q 285.64 136.11 286.82 137.39 Q 288.00 137.39 289.18 154.00 Q 290.36 154.00 291.53 154.00 Q 292.71 154.00 293.89 154.00 Q 295.07 154.00 296.25 154.00 Q 297.42 154.00 298.60 154.00 Q 299.78 154.00 300.96 154.00 Q 302.14 154.00 303.32 154.00 Q 304.49 154.00 305.67 154.00 Q 306.85 154.00 308.03 154.00 Q 309.21 154.00 310.38 154.00 Q 311.56 154.00 312.74 154.00 Q 313.92 154.00 315.10 154.00 Q 316.27 154.00 317.45 154.00 Q 318.63 154.00 319.81 154.00 Q 320.99 154.00 322.16 154.00 Q 323.34 154.00 324.52 154.00 Q 325.70 154.00 326.88 152.72 Q 328.05 152.72 329.23 152.72 Q 330.41 152.72 331.59 152.72 Q 332.77 152.72 333.95 152.72 Q 335.12 152.72 336.30 152.72 Q 337.48 152.72 338.66 154.00 Q 339.84 154.00 341.01 154.00 Q 342.19 154.00 343.37 154.00 Q 344.55 154.00 345.73 154.00 Q 346.90 154.00 348.08 154.00 Q 349.26 154.00 350.44 154.00 Q 351.62 154.00 352.79 154.00 Q 353.97 154.00 355.15 154.00 Q 356.33 154.00 357.51 154.00 Q 358.68 154.00 359.86 154.00 Q 361.04 154.00 362.22 154.00 Q 363.40 154.00 364.58 154.00 Q 365.75 154.00 366.93 154.00 Q 368.11 154.00 369.29 154.00 Q 370.47 154.00 371.64 154.00 Q 372.82 154.00 374.00 154.00 Q 375.18 154.00 376.36 154.00 Q 377.53 154.00 378.71 154.00 Q 379.89 154.00 381.07 154.00 Q 382.25 154.00 383.42 142.50 Q 384.60 142.50 385.78 128.44 Q 386.96 128.44 388.14 122.06 Q 389.32 122.06 390.49 120.78 Q 391.67 120.78 392.85 120.78 Q 394.03 120.78 395.21 132.28 Q 396.38 132.28 397.56 146.33 Q 398.74 146.33 399.92 152.72 Q 401.10 152.72 402.27 154.00 Q 403.45 154.00 404.63 154.00 Q 405.81 154.00 406.99 154.00 Q 408.16 154.00 409.34 154.00 Q 410.52 154.00 411.70 154.00 Q 412.88 154.00 414.05 154.00 Q 415.23 154.00 416.41 154.00 Q 417.59 154.00 418.77 154.00 Q 419.95 154.00 421.12 154.00 Q 422.30 154.00 423.48 154.00 Q 424.66 154.00 425.84 154.00 Q 427.01 154.00 428.19 154.00 Q 429.37 154.00 430.55 154.00 Q 431.73 154.00 432.90 154.00 Q 434.08 154.00 435.26 154.00 Q 436.44 154.00 437.62 152.72 Q 438.79 152.72 439.97 152.72 Q 441.15 152.72 442.33 152.72 Q 443.51 152.72 444.68 152.72 Q 445.86 152.72 447.04 152.72 Q 448.22 152.72 449.40 154.00 Q 450.58 154.00 451.75 154.00 Q 452.93 154.00 454.11 154.00 Q 455.29 154.00 456.47 154.00 Q 457.64 154.00 458.82 154.00 Q 460.00 154.00 461.18 154.00 Q 462.36 154.00 463.53 154.00 Q 464.71 154.00 465.89 154.00 Q 467.07 154.00 468.25 154.00 Q 469.42 154.00 470.60 154.00 Q 471.78 154.00 472.96 154.00 Q 474.14 154.00 475.32 147.61 Q 476.49 147.61 477.67 137.39 Q 478.85 137.39 480.03 87.56 Q 481.21 87.56 482.38 85.00 Q 483.56 85.00 484.74 85.00 Q 485.92 85.00 487.10 81.17 Q 488.27 81.17 489.45 91.39 Q 490.63 91.39 491.81 141.22 Q 492.99 141.22 494.16 143.78 Q 495.34 143.78 496.52 142.50 Q 497.70 142.50 498.88 151.44 Q 500.05 151.44 501.23 151.44 Q 502.41 151.44 503.59 151.44 Q 504.77 151.44 505.95 151.44 Q 507.12 151.44 508.30 152.72 Q 509.48 152.72 510.66 154.00 Q 511.84 154.00 513.01 154.00 Q 514.19 154.00 515.37 154.00 Q 516.55 154.00 517.73 154.00 Q 518.90 154.00 520.08 154.00 Q 521.26 154.00 522.44 154.00 Q 523.62 154.00 524.79 154.00 Q 525.97 154.00 527.15 154.00 Q 528.33 154.00 529.51 152.72 Q 530.68 152.72 531.86 151.44 Q 533.04 151.44 534.22 151.44 Q 535.40 151.44 536.58 151.44 Q 537.75 151.44 538.93 150.17 Q 540.11 150.17 541.29 151.44 Q 542.47 151.44 543.64 152.72 Q 544.82 152.72 546.00 152.72 Q 547.18 152.72 548.36 152.72 Q 549.53 152.72 550.71 154.00 Q 551.89 154.00 553.07 154.00 Q 554.25 154.00 555.42 154.00 Q 556.60 154.00 557.78 154.00 Q 558.96 154.00 560.14 154.00 Q 561.32 154.00 562.49 154.00 Q 563.67 154.00 564.85 154.00 Q 566.03 154.00 567.21 154.00 Q 568.38 154.00 569.56 154.00 Q 570.74 154.00 571.92 154.00 Q 573.10 154.00 574.27 154.00 Q 575.45 154.00 576.63 154.00 Q 577.81 154.00 578.99 154.00 Q 580.16 154.00 581.34 154.00 Q 582.52 154.00 583.70 154.00 Q 584.88 154.00 586.05 154.00 Q 587.23 154.00 588.41 154.00 Q 589.59 154.00 590.77 154.00 Q 591.95 154.00 593.12 154.00 Q 594.30 154.00 595.48 154.00 Q 596.66 154.00 597.84 154.00 Q 599.01 154.00 600.19 151.44 Q 601.37 151.44 602.55 151.44 Q 603.73 151.44 604.90 150.17 Q 606.08 150.17 607.26 138.67 Q 608.44 138.67 609.62 138.67 Q 610.79 138.67 611.97 128.44 Q 613.15 128.44 614.33 128.44 Q 615.51 128.44 616.68 129.72 Q 617.86 129.72 619.04 141.22 Q 620.22 141.22 621.40 141.22 Q 622.58 141.22 623.75 154.00 Q 624.93 154.00 626.11 154.00 Q 627.29 154.00 628.47 154.00 Q 629.64 154.00 630.82 154.00 Q 632.00 154.00 633.18 154.00 Q 634.36 154.00 635.53 154.00 Q 636.71 154.00 637.89 154.00 Q 639.07 154.00 640.25 154.00 Q 641.42 154.00 642.60 154.00 Q 643.78 154.00 644.96 154.00 Q 646.14 154.00 647.32 154.00 Q 648.49 154.00 649.67 154.00 Q 650.85 154.00 652.03 154.00 Q 653.21 154.00 654.38 154.00 Q 655.56 154.00 656.74 152.72 Q 657.92 152.72 659.10 152.72 Q 660.27 152.72 661.45 152.72 Q 662.63 152.72 663.81 152.72 Q 664.99 152.72 666.16 152.72 Q 667.34 152.72 668.52 154.00 Q 669.70 154.00 670.88 152.72 Q 672.05 152.72 673.23 152.72 Q 674.41 152.72 675.59 152.72 Q 676.77 152.72 677.95 152.72 Q 679.12 152.72 680.30 152.72 Q 681.48 152.72 682.66 154.00 Q 683.84 154.00 685.01 147.61 Q 686.19 147.61 687.37 147.61 Q 688.55 147.61 689.73 147.61 Q 690.90 147.61 692.08 147.61 Q 693.26 147.61 694.44 147.61 Q 695.62 147.61 696.79 154.00 Q 697.97 154.00 699.15 154.00 Q 700.33 154.00 701.51 154.00 Q 702.68 154.00 703.86 154.00 Q 705.04 154.00 706.22 154.00 Q 707.40 154.00 708.58 154.00 Q 709.75 154.00 710.93 154.00 Q 712.11 154.00 713.29 150.17 Q 714.47 150.17 715.64 150.17 Q 716.82 150.17 718.00 150.17 Q 719.18 150.17 720.36 150.17 Q 721.53 150.17 722.71 136.11 Q 723.89 136.11 725.07 136.11 Q 726.25 136.11 727.42 136.11 Q 728.60 136.11 729.78 129.72 Q 730.96 129.72 732.14 125.89 Q 733.32 125.89 734.49 118.22 Q 735.67 118.22 736.85 111.83 Q 738.03 111.83 739.21 106.72 Q 740.38 106.72 741.56 99.06 Q 742.74 99.06 743.92 90.11 Q 745.10 90.11 746.27 111.83 Q 747.45 111.83 748.63 120.78 Q 749.81 120.78 750.99 82.44 Q 752.16 82.44 753.34 76.06 Q 754.52 76.06 755.70 88.83 Q 756.88 88.83 758.05 85.00 Q 759.23 85.00 760.41 62.00 Q 761.59 62.00 762.77 69.67 Q 763.95 69.67 765.12 77.33 Q 766.30 77.33 767.48 65.83 Q 768.66 65.83 769.84 67.11 Q 771.01 67.11 772.19 87.56 Q 773.37 87.56 774.55 123.33 Q 775.73 123.33 776.90 134.83 Q 778.08 134.83 779.26 132.28 Q 780.44 132.28 781.62 127.17 Q 782.79 127.17 783.97 129.72 Q 785.15 129.72 786.33 128.44 Q 787.51 128.44 788.68 129.72 Q 789.86 129.72 791.04 143.78 Q 792.22 143.78 793.40 132.28 Q 794.58 132.28 795.75 128.44 Q 796.93 128.44 798.11 127.17 Q 799.29 127.17 800.47 114.39 Q 801.64 114.39 802.82 108.00 Q 804.00 108.00 805.18 127.17 Q 806.36 127.17 807.53 131.00 Q 808.71 131.00 809.89 124.61 Q 811.07 124.61 812.25 137.39 Q 813.42 137.39 814.60 143.78 Q 815.78 143.78 816.96 143.78 Q 818.14 143.78 819.32 145.06 Q 820.49 145.06 821.67 154.00 Q 822.85 154.00 824.03 154.00 Q 825.21 154.00 826.38 154.00 Q 827.56 154.00 828.74 154.00 Q 829.92 154.00 831.10 152.72 Q 832.27 152.72 833.45 152.72 Q 834.63 152.72 835.81 152.72 Q 836.99 152.72 838.16 152.72 Q 839.34 152.72 840.52 152.72 Q 841.70 152.72 842.88 154.00 Q 844.05 154.00 845.23 154.00 Q 846.41 154.00 847.59 154.00 Q 848.77 154.00 849.95 154.00 Q 851.12 154.00 852.30 154.00 Q 853.48 154.00 854.66 154.00 Q 855.84 154.00 857.01 150.17 Q 858.19 150.17 859.37 143.78 Q 860.55 143.78 861.73 141.22 Q 862.90 141.22 864.08 141.22 Q 865.26 141.22 866.44 139.94 Q 867.62 139.94 868.79 141.22 Q 869.97 141.22 871.15 119.50 Q 872.33 119.50 873.51 116.94 Q 874.68 116.94 875.86 101.61 Q 877.04 101.61 878.22 82.44 Q 879.40 82.44 880.58 65.83 Q 881.75 65.83 882.93 93.94 Q 884.11 93.94 885.29 99.06 Q 886.47 99.06 887.64 104.49 Q 888.82 104.49 890.00 122.06" fill="none" stroke="#7ea67f" stroke-width="5" opacity="0.24"/><path d="M 30.00 154.00 Q 31.18 154.00 32.36 154.00 Q 33.53 154.00 34.71 154.00 Q 35.89 154.00 37.07 154.00 Q 38.25 154.00 39.42 152.72 Q 40.60 152.72 41.78 152.72 Q 42.96 152.72 44.14 152.72 Q 45.32 152.72 46.49 152.72 Q 47.67 152.72 48.85 150.17 Q 50.03 150.17 51.21 132.28 Q 52.38 132.28 53.56 127.17 Q 54.74 127.17 55.92 127.17 Q 57.10 127.17 58.27 127.17 Q 59.45 127.17 60.63 120.78 Q 61.81 120.78 62.99 139.94 Q 64.16 139.94 65.34 145.06 Q 66.52 145.06 67.70 145.06 Q 68.88 145.06 70.05 142.50 Q 71.23 142.50 72.41 151.44 Q 73.59 151.44 74.77 151.44 Q 75.95 151.44 77.12 151.44 Q 78.30 151.44 79.48 151.44 Q 80.66 151.44 81.84 154.00 Q 83.01 154.00 84.19 154.00 Q 85.37 154.00 86.55 151.44 Q 87.73 151.44 88.90 143.78 Q 90.08 143.78 91.26 137.39 Q 92.44 137.39 93.62 105.44 Q 94.79 105.44 95.97 99.06 Q 97.15 99.06 98.33 101.61 Q 99.51 101.61 100.68 109.28 Q 101.86 109.28 103.04 111.83 Q 104.22 111.83 105.40 143.78 Q 106.58 143.78 107.75 150.17 Q 108.93 150.17 110.11 150.17 Q 111.29 150.17 112.47 150.17 Q 113.64 150.17 114.82 154.00 Q 116.00 154.00 117.18 154.00 Q 118.36 154.00 119.53 154.00 Q 120.71 154.00 121.89 154.00 Q 123.07 154.00 124.25 154.00 Q 125.42 154.00 126.60 154.00 Q 127.78 154.00 128.96 154.00 Q 130.14 154.00 131.32 154.00 Q 132.49 154.00 133.67 154.00 Q 134.85 154.00 136.03 154.00 Q 137.21 154.00 138.38 154.00 Q 139.56 154.00 140.74 154.00 Q 141.92 154.00 143.10 154.00 Q 144.27 154.00 145.45 154.00 Q 146.63 154.00 147.81 122.06 Q 148.99 122.06 150.16 116.94 Q 151.34 116.94 152.52 116.94 Q 153.70 116.94 154.88 116.94 Q 156.05 116.94 157.23 116.94 Q 158.41 116.94 159.59 148.89 Q 160.77 148.89 161.95 154.00 Q 163.12 154.00 164.30 151.44 Q 165.48 151.44 166.66 148.89 Q 167.84 148.89 169.01 148.89 Q 170.19 148.89 171.37 148.89 Q 172.55 148.89 173.73 148.89 Q 174.90 148.89 176.08 151.44 Q 177.26 151.44 178.44 154.00 Q 179.62 154.00 180.79 154.00 Q 181.97 154.00 183.15 154.00 Q 184.33 154.00 185.51 154.00 Q 186.68 154.00 187.86 154.00 Q 189.04 154.00 190.22 154.00 Q 191.40 154.00 192.58 154.00 Q 193.75 154.00 194.93 154.00 Q 196.11 154.00 197.29 154.00 Q 198.47 154.00 199.64 154.00 Q 200.82 154.00 202.00 154.00 Q 203.18 154.00 204.36 154.00 Q 205.53 154.00 206.71 154.00 Q 207.89 154.00 209.07 154.00 Q 210.25 154.00 211.42 154.00 Q 212.60 154.00 213.78 154.00 Q 214.96 154.00 216.14 154.00 Q 217.32 154.00 218.49 154.00 Q 219.67 154.00 220.85 154.00 Q 222.03 154.00 223.21 154.00 Q 224.38 154.00 225.56 154.00 Q 226.74 154.00 227.92 147.61 Q 229.10 147.61 230.27 147.61 Q 231.45 147.61 232.63 147.61 Q 233.81 147.61 234.99 147.61 Q 236.16 147.61 237.34 147.61 Q 238.52 147.61 239.70 154.00 Q 240.88 154.00 242.05 154.00 Q 243.23 154.00 244.41 154.00 Q 245.59 154.00 246.77 154.00 Q 247.95 154.00 249.12 154.00 Q 250.30 154.00 251.48 154.00 Q 252.66 154.00 253.84 154.00 Q 255.01 154.00 256.19 154.00 Q 257.37 154.00 258.55 154.00 Q 259.73 154.00 260.90 154.00 Q 262.08 154.00 263.26 143.78 Q 264.44 143.78 265.62 143.78 Q 266.79 143.78 267.97 143.78 Q 269.15 143.78 270.33 143.78 Q 271.51 143.78 272.68 141.22 Q 273.86 141.22 275.04 150.17 Q 276.22 150.17 277.40 133.56 Q 278.58 133.56 279.75 133.56 Q 280.93 133.56 282.11 133.56 Q 283.29 133.56 284.47 136.11 Q 285.64 136.11 286.82 137.39 Q 288.00 137.39 289.18 154.00 Q 290.36 154.00 291.53 154.00 Q 292.71 154.00 293.89 154.00 Q 295.07 154.00 296.25 154.00 Q 297.42 154.00 298.60 154.00 Q 299.78 154.00 300.96 154.00 Q 302.14 154.00 303.32 154.00 Q 304.49 154.00 305.67 154.00 Q 306.85 154.00 308.03 154.00 Q 309.21 154.00 310.38 154.00 Q 311.56 154.00 312.74 154.00 Q 313.92 154.00 315.10 154.00 Q 316.27 154.00 317.45 154.00 Q 318.63 154.00 319.81 154.00 Q 320.99 154.00 322.16 154.00 Q 323.34 154.00 324.52 154.00 Q 325.70 154.00 326.88 152.72 Q 328.05 152.72 329.23 152.72 Q 330.41 152.72 331.59 152.72 Q 332.77 152.72 333.95 152.72 Q 335.12 152.72 336.30 152.72 Q 337.48 152.72 338.66 154.00 Q 339.84 154.00 341.01 154.00 Q 342.19 154.00 343.37 154.00 Q 344.55 154.00 345.73 154.00 Q 346.90 154.00 348.08 154.00 Q 349.26 154.00 350.44 154.00 Q 351.62 154.00 352.79 154.00 Q 353.97 154.00 355.15 154.00 Q 356.33 154.00 357.51 154.00 Q 358.68 154.00 359.86 154.00 Q 361.04 154.00 362.22 154.00 Q 363.40 154.00 364.58 154.00 Q 365.75 154.00 366.93 154.00 Q 368.11 154.00 369.29 154.00 Q 370.47 154.00 371.64 154.00 Q 372.82 154.00 374.00 154.00 Q 375.18 154.00 376.36 154.00 Q 377.53 154.00 378.71 154.00 Q 379.89 154.00 381.07 154.00 Q 382.25 154.00 383.42 142.50 Q 384.60 142.50 385.78 128.44 Q 386.96 128.44 388.14 122.06 Q 389.32 122.06 390.49 120.78 Q 391.67 120.78 392.85 120.78 Q 394.03 120.78 395.21 132.28 Q 396.38 132.28 397.56 146.33 Q 398.74 146.33 399.92 152.72 Q 401.10 152.72 402.27 154.00 Q 403.45 154.00 404.63 154.00 Q 405.81 154.00 406.99 154.00 Q 408.16 154.00 409.34 154.00 Q 410.52 154.00 411.70 154.00 Q 412.88 154.00 414.05 154.00 Q 415.23 154.00 416.41 154.00 Q 417.59 154.00 418.77 154.00 Q 419.95 154.00 421.12 154.00 Q 422.30 154.00 423.48 154.00 Q 424.66 154.00 425.84 154.00 Q 427.01 154.00 428.19 154.00 Q 429.37 154.00 430.55 154.00 Q 431.73 154.00 432.90 154.00 Q 434.08 154.00 435.26 154.00 Q 436.44 154.00 437.62 152.72 Q 438.79 152.72 439.97 152.72 Q 441.15 152.72 442.33 152.72 Q 443.51 152.72 444.68 152.72 Q 445.86 152.72 447.04 152.72 Q 448.22 152.72 449.40 154.00 Q 450.58 154.00 451.75 154.00 Q 452.93 154.00 454.11 154.00 Q 455.29 154.00 456.47 154.00 Q 457.64 154.00 458.82 154.00 Q 460.00 154.00 461.18 154.00 Q 462.36 154.00 463.53 154.00 Q 464.71 154.00 465.89 154.00 Q 467.07 154.00 468.25 154.00 Q 469.42 154.00 470.60 154.00 Q 471.78 154.00 472.96 154.00 Q 474.14 154.00 475.32 147.61 Q 476.49 147.61 477.67 137.39 Q 478.85 137.39 480.03 87.56 Q 481.21 87.56 482.38 85.00 Q 483.56 85.00 484.74 85.00 Q 485.92 85.00 487.10 81.17 Q 488.27 81.17 489.45 91.39 Q 490.63 91.39 491.81 141.22 Q 492.99 141.22 494.16 143.78 Q 495.34 143.78 496.52 142.50 Q 497.70 142.50 498.88 151.44 Q 500.05 151.44 501.23 151.44 Q 502.41 151.44 503.59 151.44 Q 504.77 151.44 505.95 151.44 Q 507.12 151.44 508.30 152.72 Q 509.48 152.72 510.66 154.00 Q 511.84 154.00 513.01 154.00 Q 514.19 154.00 515.37 154.00 Q 516.55 154.00 517.73 154.00 Q 518.90 154.00 520.08 154.00 Q 521.26 154.00 522.44 154.00 Q 523.62 154.00 524.79 154.00 Q 525.97 154.00 527.15 154.00 Q 528.33 154.00 529.51 152.72 Q 530.68 152.72 531.86 151.44 Q 533.04 151.44 534.22 151.44 Q 535.40 151.44 536.58 151.44 Q 537.75 151.44 538.93 150.17 Q 540.11 150.17 541.29 151.44 Q 542.47 151.44 543.64 152.72 Q 544.82 152.72 546.00 152.72 Q 547.18 152.72 548.36 152.72 Q 549.53 152.72 550.71 154.00 Q 551.89 154.00 553.07 154.00 Q 554.25 154.00 555.42 154.00 Q 556.60 154.00 557.78 154.00 Q 558.96 154.00 560.14 154.00 Q 561.32 154.00 562.49 154.00 Q 563.67 154.00 564.85 154.00 Q 566.03 154.00 567.21 154.00 Q 568.38 154.00 569.56 154.00 Q 570.74 154.00 571.92 154.00 Q 573.10 154.00 574.27 154.00 Q 575.45 154.00 576.63 154.00 Q 577.81 154.00 578.99 154.00 Q 580.16 154.00 581.34 154.00 Q 582.52 154.00 583.70 154.00 Q 584.88 154.00 586.05 154.00 Q 587.23 154.00 588.41 154.00 Q 589.59 154.00 590.77 154.00 Q 591.95 154.00 593.12 154.00 Q 594.30 154.00 595.48 154.00 Q 596.66 154.00 597.84 154.00 Q 599.01 154.00 600.19 151.44 Q 601.37 151.44 602.55 151.44 Q 603.73 151.44 604.90 150.17 Q 606.08 150.17 607.26 138.67 Q 608.44 138.67 609.62 138.67 Q 610.79 138.67 611.97 128.44 Q 613.15 128.44 614.33 128.44 Q 615.51 128.44 616.68 129.72 Q 617.86 129.72 619.04 141.22 Q 620.22 141.22 621.40 141.22 Q 622.58 141.22 623.75 154.00 Q 624.93 154.00 626.11 154.00 Q 627.29 154.00 628.47 154.00 Q 629.64 154.00 630.82 154.00 Q 632.00 154.00 633.18 154.00 Q 634.36 154.00 635.53 154.00 Q 636.71 154.00 637.89 154.00 Q 639.07 154.00 640.25 154.00 Q 641.42 154.00 642.60 154.00 Q 643.78 154.00 644.96 154.00 Q 646.14 154.00 647.32 154.00 Q 648.49 154.00 649.67 154.00 Q 650.85 154.00 652.03 154.00 Q 653.21 154.00 654.38 154.00 Q 655.56 154.00 656.74 152.72 Q 657.92 152.72 659.10 152.72 Q 660.27 152.72 661.45 152.72 Q 662.63 152.72 663.81 152.72 Q 664.99 152.72 666.16 152.72 Q 667.34 152.72 668.52 154.00 Q 669.70 154.00 670.88 152.72 Q 672.05 152.72 673.23 152.72 Q 674.41 152.72 675.59 152.72 Q 676.77 152.72 677.95 152.72 Q 679.12 152.72 680.30 152.72 Q 681.48 152.72 682.66 154.00 Q 683.84 154.00 685.01 147.61 Q 686.19 147.61 687.37 147.61 Q 688.55 147.61 689.73 147.61 Q 690.90 147.61 692.08 147.61 Q 693.26 147.61 694.44 147.61 Q 695.62 147.61 696.79 154.00 Q 697.97 154.00 699.15 154.00 Q 700.33 154.00 701.51 154.00 Q 702.68 154.00 703.86 154.00 Q 705.04 154.00 706.22 154.00 Q 707.40 154.00 708.58 154.00 Q 709.75 154.00 710.93 154.00 Q 712.11 154.00 713.29 150.17 Q 714.47 150.17 715.64 150.17 Q 716.82 150.17 718.00 150.17 Q 719.18 150.17 720.36 150.17 Q 721.53 150.17 722.71 136.11 Q 723.89 136.11 725.07 136.11 Q 726.25 136.11 727.42 136.11 Q 728.60 136.11 729.78 129.72 Q 730.96 129.72 732.14 125.89 Q 733.32 125.89 734.49 118.22 Q 735.67 118.22 736.85 111.83 Q 738.03 111.83 739.21 106.72 Q 740.38 106.72 741.56 99.06 Q 742.74 99.06 743.92 90.11 Q 745.10 90.11 746.27 111.83 Q 747.45 111.83 748.63 120.78 Q 749.81 120.78 750.99 82.44 Q 752.16 82.44 753.34 76.06 Q 754.52 76.06 755.70 88.83 Q 756.88 88.83 758.05 85.00 Q 759.23 85.00 760.41 62.00 Q 761.59 62.00 762.77 69.67 Q 763.95 69.67 765.12 77.33 Q 766.30 77.33 767.48 65.83 Q 768.66 65.83 769.84 67.11 Q 771.01 67.11 772.19 87.56 Q 773.37 87.56 774.55 123.33 Q 775.73 123.33 776.90 134.83 Q 778.08 134.83 779.26 132.28 Q 780.44 132.28 781.62 127.17 Q 782.79 127.17 783.97 129.72 Q 785.15 129.72 786.33 128.44 Q 787.51 128.44 788.68 129.72 Q 789.86 129.72 791.04 143.78 Q 792.22 143.78 793.40 132.28 Q 794.58 132.28 795.75 128.44 Q 796.93 128.44 798.11 127.17 Q 799.29 127.17 800.47 114.39 Q 801.64 114.39 802.82 108.00 Q 804.00 108.00 805.18 127.17 Q 806.36 127.17 807.53 131.00 Q 808.71 131.00 809.89 124.61 Q 811.07 124.61 812.25 137.39 Q 813.42 137.39 814.60 143.78 Q 815.78 143.78 816.96 143.78 Q 818.14 143.78 819.32 145.06 Q 820.49 145.06 821.67 154.00 Q 822.85 154.00 824.03 154.00 Q 825.21 154.00 826.38 154.00 Q 827.56 154.00 828.74 154.00 Q 829.92 154.00 831.10 152.72 Q 832.27 152.72 833.45 152.72 Q 834.63 152.72 835.81 152.72 Q 836.99 152.72 838.16 152.72 Q 839.34 152.72 840.52 152.72 Q 841.70 152.72 842.88 154.00 Q 844.05 154.00 845.23 154.00 Q 846.41 154.00 847.59 154.00 Q 848.77 154.00 849.95 154.00 Q 851.12 154.00 852.30 154.00 Q 853.48 154.00 854.66 154.00 Q 855.84 154.00 857.01 150.17 Q 858.19 150.17 859.37 143.78 Q 860.55 143.78 861.73 141.22 Q 862.90 141.22 864.08 141.22 Q 865.26 141.22 866.44 139.94 Q 867.62 139.94 868.79 141.22 Q 869.97 141.22 871.15 119.50 Q 872.33 119.50 873.51 116.94 Q 874.68 116.94 875.86 101.61 Q 877.04 101.61 878.22 82.44 Q 879.40 82.44 880.58 65.83 Q 881.75 65.83 882.93 93.94 Q 884.11 93.94 885.29 99.06 Q 886.47 99.06 887.64 104.49 Q 888.82 104.49 890.00 122.06" fill="none" stroke="#385e3b" stroke-width="1.8"/><line x1="22" y1="198" x2="898" y2="198" stroke="#c6bfad"/><text x="22" y="188" fill="#716d60" class="m small">range: Jan → now</text><text x="898" y="188" text-anchor="end" fill="#302f28" class="m small">peak daily count is derived from your contribution calendar</text></svg>